<?xml version="1.0" encoding="UTF-8"?>
<svg id="Layer_2" xmlns="http://www.w3.org/2000/svg" viewBox="0 0 21.34 16.88">
  <defs>
    <style>
      .cls-1 {
        fill: #fff;
      }
    </style>
  </defs>
  <g id="Layer_7">
    <g id="p2p_logo">
      <path class="cls-1" d="M0,3.81h2.37v1.11c.27-.26,1.44-1.33,3.14-1.29,1.79.04,3.44,1.28,4.16,3.14l-2.19,2.34c.25-1.03-.12-2.11-.95-2.75-.79-.61-1.86-.72-2.77-.28-.15.09-1.22.76-1.43,2.13-.2,1.29.51,2.21.63,2.36,0,0,2.48,2.52,4.42-.88,0,0,2.45-2.15,3.61-4.12,0,0,1.39-2.19-.66-3.18,0,0-1.93-.62-2.45,1.53,0,0-.58-.55-2.3-.69.08-.35.37-1.42,1.39-2.26C8.14-.01,9.46,0,9.78.01c.24-.02,1.63-.12,2.81.91,1.27,1.12,1.28,2.66,1.28,2.88-.02.47-.09,1.19-.39,1.99-.19.5-.51,1.16-2.13,3.04-.45.53-1.08,1.23-1.86,2.04-.17.4-.48.92-.98,1.44-.68.71-1.76,1.39-3.33,1.3,0,0-1.72,0-2.77-1.28v4.53H0V3.81Z"/>
      <path class="cls-1" d="M9.78,10.96h1.24v2.27h-3.08s1-.6,1.84-2.27Z"/>
      <path class="cls-1" d="M13.8,9.36v7.52h-2.41v-7.52s2.23-2.01,2.81-4.74c0,0,2.31-2.37,5.37,0,0,0,1.98,1.5,1.75,4.14,0,0-.15,3.6-2.67,4.47,0,0-2.41,1.2-4.53-.51v-2.37s1.02,1.42,2.85,1.02c0,0,1.86-.47,1.93-2.52,0,0,.29-2.23-1.9-2.99-.14-.03-1.56-.3-2.54.64-.56.54-.71,1.23-.75,1.44-.13.64,0,1.16.07,1.42Z"/>
    </g>
  </g>
</svg>